<?xml version="1.0" encoding="utf-8"?>
<!-- Generator: Adobe Illustrator 16.0.0, SVG Export Plug-In . SVG Version: 6.00 Build 0)  -->
<!DOCTYPE svg PUBLIC "-//W3C//DTD SVG 1.1//EN" "http://www.w3.org/Graphics/SVG/1.1/DTD/svg11.dtd">
<svg version="1.1" id="圖層_1" xmlns="http://www.w3.org/2000/svg" xmlns:xlink="http://www.w3.org/1999/xlink" x="0px" y="0px"
	 width="595.28px" height="841.89px" viewBox="0 0 595.28 841.89" enable-background="new 0 0 595.28 841.89" xml:space="preserve">
<rect x="-6" y="-4" fill="#2EA7E0" width="607" height="855.05"/>
<rect x="36.744" y="522" fill="#FFF100" width="527.744" height="46.646"/>
<rect x="37.349" y="583.354" fill="#FFF100" width="526.651" height="46.646"/>
<rect x="35.744" y="158.709" fill="#FFF100" width="530.56" height="46.647"/>
<rect x="36.744" y="368.621" fill="#FFF100" width="526.744" height="46.646"/>
<text transform="matrix(1 0 0 1 45.4639 201.7622)" fill="#E4007F" font-family="'MicrosoftJhengHeiBold'" font-size="51">7</text>
<text transform="matrix(1 0 0 1 80.4639 193.5864)" fill="#E4007F" font-family="'MicrosoftJhengHeiBold'" font-size="25">年級</text>
<text transform="matrix(1 0 0 1 153.4639 193.5864)" fill="#E4007F" font-family="'MicrosoftJhengHeiBold'" font-size="25">開學</text>
<text transform="matrix(1 0 0 1 224.4639 193.5864)" fill="#E4007F" font-family="'MicrosoftJhengHeiBold'" font-size="25">上課時間表</text>
<text transform="matrix(1 0 0 1 374.4639 193.5864)" fill="#E4007F" font-family="'MicrosoftJhengHeiBold'" font-size="25">9月起</text>
<g>
	<rect x="53.744" y="206.542" fill="#FFF100" stroke="#036EB8" stroke-miterlimit="10" width="498" height="143"/>
	<line fill="#FFF100" stroke="#036EB8" stroke-miterlimit="10" x1="198.744" y1="310.542" x2="285.744" y2="310.542"/>
	<line fill="#FFF100" stroke="#036EB8" stroke-miterlimit="10" x1="198.744" y1="269.542" x2="285.744" y2="269.542"/>
	<line fill="#FFF100" stroke="#036EB8" stroke-miterlimit="10" x1="53.744" y1="230.386" x2="551.744" y2="230.386"/>
	<line fill="#FFF100" stroke="#036EB8" stroke-miterlimit="10" x1="463.367" y1="206.542" x2="463.367" y2="349.542"/>
	<line fill="#FFF100" stroke="#036EB8" stroke-miterlimit="10" x1="375.121" y1="206.542" x2="375.121" y2="349.542"/>
	<line fill="#FFF100" stroke="#036EB8" stroke-miterlimit="10" x1="286.744" y1="206.542" x2="286.744" y2="349.542"/>
	<line fill="#FFF100" stroke="#036EB8" stroke-miterlimit="10" x1="198.368" y1="206.542" x2="198.368" y2="349.542"/>
	<line fill="#FFF100" stroke="#036EB8" stroke-miterlimit="10" x1="110.121" y1="206.542" x2="110.121" y2="349.542"/>
</g>
<g>
	<rect x="52.744" y="416.542" fill="#FFF100" stroke="#036EB8" stroke-miterlimit="10" width="500" height="90"/>
	<line fill="#FFF100" stroke="#036EB8" stroke-miterlimit="10" x1="51.744" y1="443.604" x2="552.744" y2="443.604"/>
	<line fill="#FFF100" stroke="#036EB8" stroke-miterlimit="10" x1="464.367" y1="416.542" x2="464.367" y2="506.541"/>
	<line fill="#FFF100" stroke="#036EB8" stroke-miterlimit="10" x1="376.121" y1="416.542" x2="376.121" y2="506.541"/>
	<line fill="#FFF100" stroke="#036EB8" stroke-miterlimit="10" x1="287.744" y1="416.542" x2="287.744" y2="506.541"/>
	<line fill="#FFF100" stroke="#036EB8" stroke-miterlimit="10" x1="199.367" y1="416.542" x2="199.367" y2="506.541"/>
	<line fill="#FFF100" stroke="#036EB8" stroke-miterlimit="10" x1="111.121" y1="416.542" x2="111.121" y2="506.541"/>
</g>
<text transform="matrix(1 0 0 1 45.4639 409.8218)" fill="#E4007F" font-family="'MicrosoftJhengHeiBold'" font-size="51">8</text>
<text transform="matrix(1 0 0 1 80.4639 401.646)" fill="#E4007F" font-family="'MicrosoftJhengHeiBold'" font-size="25">年級</text>
<text transform="matrix(1 0 0 1 153.4639 401.646)" fill="#E4007F" font-family="'MicrosoftJhengHeiBold'" font-size="25">開學</text>
<text transform="matrix(1 0 0 1 224.4639 401.646)" fill="#E4007F" font-family="'MicrosoftJhengHeiBold'" font-size="25">上課時間表</text>
<text transform="matrix(1 0 0 1 374.4639 401.646)" fill="#E4007F" font-family="'MicrosoftJhengHeiBold'" font-size="25">9月起</text>
<text transform="matrix(1 0 0 1 63.7441 223.5415)" fill="#E4007F" font-family="'MicrosoftJhengHeiBold'" font-size="18">星期</text>
<text transform="matrix(1 0 0 1 142.7441 224.5415)" fill="#E4007F" font-family="'MicrosoftJhengHeiBold'" font-size="18">一</text>
<text transform="matrix(1 0 0 1 233.7441 224.5415)" fill="#E4007F" font-family="'MicrosoftJhengHeiBold'" font-size="18">二</text>
<text transform="matrix(1 0 0 1 321.7441 224.5415)" fill="#E4007F" font-family="'MicrosoftJhengHeiBold'" font-size="18">三</text>
<text transform="matrix(1 0 0 1 409.7441 225.5415)" fill="#E4007F" font-family="'MicrosoftJhengHeiBold'" font-size="18">四</text>
<text transform="matrix(1 0 0 1 496.7441 225.5415)" fill="#E4007F" font-family="'MicrosoftJhengHeiBold'" font-size="18">五</text>
<text transform="matrix(1 0 0 1 63.7441 435.541)" fill="#E4007F" font-family="'MicrosoftJhengHeiBold'" font-size="18">星期</text>
<text transform="matrix(1 0 0 1 142.7441 436.541)" fill="#E4007F" font-family="'MicrosoftJhengHeiBold'" font-size="18">一</text>
<text transform="matrix(1 0 0 1 233.7441 436.541)" fill="#E4007F" font-family="'MicrosoftJhengHeiBold'" font-size="18">二</text>
<text transform="matrix(1 0 0 1 321.7441 436.541)" fill="#E4007F" font-family="'MicrosoftJhengHeiBold'" font-size="18">三</text>
<text transform="matrix(1 0 0 1 409.7441 437.541)" fill="#E4007F" font-family="'MicrosoftJhengHeiBold'" font-size="18">四</text>
<text transform="matrix(1 0 0 1 496.7441 437.541)" fill="#E4007F" font-family="'MicrosoftJhengHeiBold'" font-size="18">五</text>
<text transform="matrix(1 0 0 1 220.4941 248.5415)" fill="#E4007F" font-family="'MicrosoftJhengHeiBold'" font-size="18">生 物</text>
<text transform="matrix(1 0 0 1 223.4941 327.5415)" fill="#E4007F" font-family="'MicrosoftJhengHeiBold'" font-size="18">國 文</text>
<text transform="matrix(1 0 0 1 312.4941 269.5415)" fill="#E4007F" font-family="'MicrosoftJhengHeiBold'" font-size="18">數 學</text>
<text transform="matrix(1 0 0 1 401.4941 269.5415)"><tspan x="0" y="0" fill="#E4007F" font-family="'MicrosoftJhengHeiBold'" font-size="18">數 學</tspan><tspan x="0" y="21.6" fill="#E4007F" font-family="'MicrosoftJhengHeiBold'" font-size="18">輔 導</tspan></text>
<text transform="matrix(1 0 0 1 485.4941 269.5415)" fill="#E4007F" font-family="'MicrosoftJhengHeiBold'" font-size="18">英 文</text>
<text transform="matrix(1 0 0 1 487.4941 464.541)"><tspan x="0" y="0" fill="#E4007F" font-family="'MicrosoftJhengHeiBold'" font-size="18">數 學</tspan><tspan x="0" y="21.601" fill="#E4007F" font-family="'MicrosoftJhengHeiBold'" font-size="18">輔 導</tspan></text>
<text transform="matrix(1 0 0 1 133.4941 482.541)" fill="#E4007F" font-family="'MicrosoftJhengHeiBold'" font-size="18">數 學</text>
<text transform="matrix(1 0 0 1 221.4941 482.541)" fill="#E4007F" font-family="'MicrosoftJhengHeiBold'" font-size="18">理 化</text>
<text transform="matrix(1 0 0 1 311.4941 482.541)" fill="#E4007F" font-family="'MicrosoftJhengHeiBold'" font-size="18">國 文</text>
<text transform="matrix(1 0 0 1 400.4941 483.541)" fill="#E4007F" font-family="'MicrosoftJhengHeiBold'" font-size="18">英 文</text>
<text transform="matrix(1 0 0 1 300.8633 311.5415)" fill="#E4007F" font-family="'MicrosoftJhengHeiBold'" font-size="10">下午530~8:30</text>
<text transform="matrix(1 0 0 1 387.5918 311.5415)" fill="#E4007F" font-family="'MicrosoftJhengHeiBold'" font-size="10">下午4:30~6:00</text>
<text transform="matrix(1 0 0 1 473.5918 500.541)" fill="#E4007F" font-family="'MicrosoftJhengHeiBold'" font-size="10">下午4:30~6:00</text>
<text transform="matrix(1 0 0 1 474.5918 311.5415)" fill="#E4007F" font-family="'MicrosoftJhengHeiBold'" font-size="10">下午5:30~8:30</text>
<text transform="matrix(1 0 0 1 206.5918 343.5415)" fill="#E4007F" font-family="'MicrosoftJhengHeiBold'" font-size="10">下午7:00~8:30</text>
<text transform="matrix(1 0 0 1 205.5918 305.5415)" fill="#E4007F" font-family="'MicrosoftJhengHeiBold'" font-size="10">下午6:20~7:00</text>
<text transform="matrix(1 0 0 1 206.5918 265.5415)" fill="#E4007F" font-family="'MicrosoftJhengHeiBold'" font-size="10">下午4:40~6:20</text>
<text transform="matrix(1 0 0 1 219.4941 287.5415)" fill="#E4007F" font-family="'MicrosoftJhengHeiBold'" font-size="18">用 餐</text>
<text transform="matrix(1 0 0 1 49.0684 626.9043)" fill="#E4007F" font-family="'MicrosoftJhengHeiBold'" font-size="51">9</text>
<text transform="matrix(1 0 0 1 84.0684 618.7285)" fill="#E4007F" font-family="'MicrosoftJhengHeiBold'" font-size="25">年級</text>
<text transform="matrix(1 0 0 1 144.4365 618.9043)" fill="#E4007F" font-family="'MicrosoftJhengHeiBold'" font-size="25">數學  星期六  下午 1:00~4:00 </text>
<text transform="matrix(1 0 0 1 50.4639 564.8398)" fill="#E4007F" font-family="'MicrosoftJhengHeiBold'" font-size="51">9</text>
<text transform="matrix(1 0 0 1 85.4639 556.6641)" fill="#E4007F" font-family="'MicrosoftJhengHeiBold'" font-size="25">年級</text>
<text transform="matrix(1 0 0 1 138.3857 556.8398)" fill="#E4007F" font-family="'MicrosoftJhengHeiBold'" font-size="25">理化  星期六  上午 9:00~12:00 </text>
<text transform="matrix(1 0 0 1 71.6914 269.2612)"><tspan x="0" y="0" fill="#E4007F" font-family="'AdobeMingStd-Light-B5pc-H'" font-size="18">時</tspan><tspan x="0" y="43.2" fill="#E4007F" font-family="'AdobeMingStd-Light-B5pc-H'" font-size="18">間</tspan></text>
<text transform="matrix(1 0 0 1 70.6914 458.2617)"><tspan x="0" y="0" fill="#E4007F" font-family="'MicrosoftJhengHeiBold'" font-size="12">下午</tspan><tspan x="-0.249" y="14.399" fill="#E4007F" font-family="'MicrosoftJhengHeiBold'" font-size="12">6:00</tspan><tspan x="10.16" y="28.799" fill="#E4007F" font-family="'MicrosoftJhengHeiBold'" font-size="12">I</tspan><tspan x="-0.249" y="43.199" fill="#E4007F" font-family="'MicrosoftJhengHeiBold'" font-size="12">9:00</tspan></text>
<rect x="35.744" y="651.787" fill="#FFF100" width="528.744" height="46.648"/>
<rect x="37" y="713.895" fill="#FFF100" width="525.744" height="46.646"/>
<rect x="37" y="772.352" fill="#FFF100" width="526.654" height="46.648"/>
<text transform="matrix(1 0 0 1 84.7441 693.541)" fill="#E4007F" font-family="'MicrosoftJhengHeiBold'" font-size="51">1</text>
<text transform="matrix(1 0 0 1 86.7441 757.541)" fill="#E4007F" font-family="'MicrosoftJhengHeiBold'" font-size="51">1</text>
<text transform="matrix(1 0 0 1 87.7441 812.541)" fill="#E4007F" font-family="'MicrosoftJhengHeiBold'" font-size="51">3</text>
<text transform="matrix(1 0 0 1 48.7441 689.542)" fill="#E4007F" font-family="'MicrosoftJhengHeiBold'" font-size="36">高</text>
<text transform="matrix(1 0 0 1 50.7441 753.541)" fill="#E4007F" font-family="'MicrosoftJhengHeiBold'" font-size="36">高</text>
<text transform="matrix(1 0 0 1 51.7441 806.541)" fill="#E4007F" font-family="'MicrosoftJhengHeiBold'" font-size="36">高</text>
<text transform="matrix(1 0 0 1 143.1123 686.541)" fill="#E4007F" font-family="'MicrosoftJhengHeiBold'" font-size="25">數學  星期二  下午 6:00~9:00 </text>
<text transform="matrix(1 0 0 1 147.1123 804.541)" fill="#E4007F" font-family="'MicrosoftJhengHeiBold'" font-size="25">物理  星期三  下午 6:00~9:00 </text>
<text transform="matrix(1 0 0 1 143.6123 748.541)" fill="#E4007F" font-family="'MicrosoftJhengHeiBold'" font-size="25">物理 、化學 星期六  下午 1:30~4:30 </text>
<rect x="35" y="93.596" fill="#FFF100" width="527.744" height="46.646"/>
<rect x="35" y="29.709" fill="#FFF100" width="526.651" height="46.646"/>
<text transform="matrix(1 0 0 1 46.7197 73.2603)" fill="#E4007F" font-family="'MicrosoftJhengHeiBold'" font-size="51">5</text>
<text transform="matrix(1 0 0 1 81.7197 65.0845)" fill="#E4007F" font-family="'MicrosoftJhengHeiBold'" font-size="25">年級</text>
<text transform="matrix(1 0 0 1 142.0879 65.2603)" fill="#E4007F" font-family="'MicrosoftJhengHeiBold'" font-size="25">數學  星期三  下午 2:00~4:00 </text>
<text transform="matrix(1 0 0 1 48.7197 136.436)" fill="#E4007F" font-family="'MicrosoftJhengHeiBold'" font-size="51">6</text>
<text transform="matrix(1 0 0 1 83.7197 128.2603)" fill="#E4007F" font-family="'MicrosoftJhengHeiBold'" font-size="25">年級</text>
<text transform="matrix(1 0 0 1 147.2129 128.436)" fill="#E4007F" font-family="'MicrosoftJhengHeiBold'" font-size="25">數學  星期三  下午 2:00~4:00</text>
</svg>
